<?xml version="1.0" encoding="iso-8859-1"?>
<!-- Generator: Adobe Illustrator 13.0.0, SVG Export Plug-In . SVG Version: 6.00 Build 14948)  -->
<!DOCTYPE svg PUBLIC "-//W3C//DTD SVG 1.1//EN" "http://www.w3.org/Graphics/SVG/1.1/DTD/svg11.dtd">
<svg version="1.1" id="Calque_1" xmlns="http://www.w3.org/2000/svg" xmlns:xlink="http://www.w3.org/1999/xlink" x="0px" y="0px"
	 width="66px" height="48px" viewBox="0 0 66 48" style="enable-background:new 0 0 66 48;" xml:space="preserve">
<g style="opacity:0.2;">
	<path style="fill:#FFFFFF;" d="M50.926,30.148c1.572,0,2.852,1.279,2.852,2.852h2.445c0-2.92-2.377-5.296-5.297-5.296
		S45.63,30.08,45.63,33h2.444C48.074,31.428,49.354,30.148,50.926,30.148z"/>
	<path style="fill:#FFFFFF;" d="M15.074,48.074c6.91,0,12.744-4.675,14.518-11.026c0.922,0.777,2.11,1.249,3.408,1.249
		s2.486-0.472,3.408-1.249c1.773,6.352,7.607,11.026,14.518,11.026C59.238,48.074,66,41.312,66,33
		c0-8.312-6.762-15.074-15.074-15.074c-5.138,0-9.682,2.586-12.404,6.522c-1.592-1.031-3.487-1.634-5.521-1.634
		s-3.93,0.603-5.521,1.634c-2.723-3.937-7.267-6.522-12.404-6.522C6.762,17.926,0,24.688,0,33C0,41.312,6.762,48.074,15.074,48.074z
		 M33,35.852c-1.572,0-2.852-1.279-2.852-2.852s1.279-2.852,2.852-2.852s2.852,1.279,2.852,2.852S34.572,35.852,33,35.852z
		 M50.926,20.37c6.965,0,12.63,5.666,12.63,12.63s-5.665,12.63-12.63,12.63c-6.964,0-12.629-5.666-12.629-12.63
		c0-1.637,0.316-3.201,0.886-4.638c0.974,1.294,1.558,2.896,1.558,4.638c0,5.616,4.569,10.186,10.186,10.186
		S61.111,38.616,61.111,33h-2.444c0,4.269-3.473,7.741-7.741,7.741c-4.268,0-7.74-3.473-7.74-7.741c0-2.699-1.059-5.155-2.778-6.979
		C42.672,22.617,46.541,20.37,50.926,20.37z M33,25.26c1.589,0,3.066,0.482,4.297,1.307c-0.361,0.763-0.658,1.561-0.889,2.386
		c-0.922-0.777-2.11-1.248-3.408-1.248s-2.486,0.471-3.408,1.248c-0.23-0.825-0.527-1.623-0.889-2.386
		C29.934,25.742,31.411,25.26,33,25.26z M15.074,20.37c4.385,0,8.254,2.247,10.519,5.65c-1.72,1.824-2.778,4.28-2.778,6.979
		c0,4.269-3.473,7.741-7.74,7.741c-4.269,0-7.741-3.473-7.741-7.741H4.889c0,5.616,4.569,10.186,10.186,10.186
		S25.26,38.616,25.26,33c0-1.741,0.584-3.344,1.558-4.638c0.569,1.437,0.887,3.001,0.887,4.638c0,6.964-5.666,12.63-12.63,12.63
		S2.444,39.964,2.444,33S8.11,20.37,15.074,20.37z"/>
	<path style="fill:#FFFFFF;" d="M15.074,30.148c1.572,0,2.852,1.279,2.852,2.852h2.444c0-2.92-2.376-5.296-5.296-5.296
		S9.777,30.08,9.777,33h2.445C12.223,31.428,13.502,30.148,15.074,30.148z"/>
	<path style="fill:#FFFFFF;" d="M58.667,15.074h2.444c0-5.616-4.569-10.186-10.186-10.186v2.445
		C55.194,7.334,58.667,10.806,58.667,15.074z"/>
	<path style="fill:#FFFFFF;" d="M27.704,15.074c0,2.92,2.376,5.296,5.296,5.296s5.297-2.376,5.297-5.296S35.92,9.778,33,9.778
		S27.704,12.154,27.704,15.074z M35.852,15.074c0,1.572-1.279,2.852-2.852,2.852s-2.852-1.279-2.852-2.852s1.279-2.852,2.852-2.852
		S35.852,13.502,35.852,15.074z"/>
	<path style="fill:#FFFFFF;" d="M15.074,9.778c-2.92,0-5.297,2.376-5.297,5.296h2.445c0-1.572,1.279-2.852,2.852-2.852
		s2.852,1.279,2.852,2.852h2.444c0-6.964,5.666-12.63,12.63-12.63s12.63,5.666,12.63,12.63h2.444c0-1.572,1.279-2.852,2.852-2.852
		s2.852,1.279,2.852,2.852h2.445c0-2.92-2.377-5.296-5.297-5.296c-1.298,0-2.486,0.471-3.408,1.248C45.744,4.675,39.91,0,33,0
		S20.256,4.675,18.482,11.026C17.561,10.249,16.372,9.778,15.074,9.778z"/>
	<path style="fill:#FFFFFF;" d="M15.074,7.334V4.889c-5.616,0-10.186,4.569-10.186,10.186h2.444
		C7.333,10.806,10.806,7.334,15.074,7.334z"/>
</g>
<g>
	<path style="fill:#FFFFFF;" d="M4.889,15.051h2.445c0-4.262,3.472-7.729,7.741-7.729V4.881C9.458,4.881,4.889,9.443,4.889,15.051z"
		/>
	
</g>
<g>
	<path style="fill:#FFFFFF;" d="M15.074,2.44V0C6.762,0,0,6.752,0,15.051h2.444C2.444,8.098,8.11,2.44,15.074,2.44z"/>
	
</g>
<g>
	<path style="fill:#FFFFFF;" d="M12.222,15.051H9.778c0,2.916,2.376,5.289,5.296,5.289v-2.441
		C13.502,17.898,12.222,16.621,12.222,15.051z"/>
	
</g>
<g>
	<path style="fill:#FFFFFF;" d="M2.444,15.051H0c0,8.299,6.762,15.051,15.074,15.051V27.66C8.11,27.66,2.444,22.004,2.444,15.051z"
		/>
	
</g>
<g>
	<path style="fill:#FFFFFF;" d="M22.815,15.051h2.444c0-5.607-4.569-10.17-10.185-10.17v2.441
		C19.342,7.322,22.815,10.789,22.815,15.051z"/>
	
</g>
<g>
	<path style="fill:#FFFFFF;" d="M27.704,15.051h2.444C30.148,6.752,23.386,0,15.074,0v2.44C22.038,2.44,27.704,8.098,27.704,15.051z
		"/>
	
</g>
<g>
	<path style="fill:#FFFFFF;" d="M20.371,15.051h-2.445c0,1.57-1.279,2.848-2.852,2.848v2.441
		C17.994,20.34,20.371,17.967,20.371,15.051z"/>
	
</g>
<g>
	<path style="fill:#FFFFFF;" d="M30.148,15.051h-2.444c0,6.953-5.666,12.609-12.629,12.609v2.441
		C23.386,30.102,30.148,23.35,30.148,15.051z"/>
	
</g>
<g>
	<path style="fill:#FFFFFF;" d="M33,12.203v-2.44c-2.92,0-5.296,2.372-5.296,5.288h2.444C30.148,13.48,31.428,12.203,33,12.203z"/>
	
</g>
<g>
	<path style="fill:#FFFFFF;" d="M30.148,15.051h-2.444c0,2.916,2.376,5.289,5.296,5.289v-2.441
		C31.428,17.898,30.148,16.621,30.148,15.051z"/>
	
</g>
<g>
	<path style="fill:#FFFFFF;" d="M25.259,15.051h-2.444c0,5.607,4.569,10.17,10.185,10.17v-2.441
		C28.732,22.779,25.259,19.312,25.259,15.051z"/>
	
</g>
<g>
	<path style="fill:#FFFFFF;" d="M35.852,15.051h2.445c0-2.916-2.377-5.288-5.297-5.288v2.44
		C34.572,12.203,35.852,13.48,35.852,15.051z"/>
	
</g>
<g>
	<path style="fill:#FFFFFF;" d="M38.297,15.051h-2.445c0,1.57-1.279,2.848-2.852,2.848v2.441
		C35.92,20.34,38.297,17.967,38.297,15.051z"/>
	
</g>
<g>
	<path style="fill:#FFFFFF;" d="M33,22.779v2.441c5.616,0,10.186-4.562,10.186-10.17H40.74C40.74,19.312,37.268,22.779,33,22.779z"
		/>
	
</g>
<g>
	<path style="fill:#FFFFFF;" d="M40.74,15.051h2.445c0-4.262,3.473-7.729,7.74-7.729V4.881C45.31,4.881,40.74,9.443,40.74,15.051z"
		/>
	
</g>
<g>
	<path style="fill:#FFFFFF;" d="M50.926,2.44V0c-8.312,0-15.074,6.752-15.074,15.051h2.445C38.297,8.098,43.962,2.44,50.926,2.44z"
		/>
	
</g>
<g>
	<path style="fill:#FFFFFF;" d="M48.074,15.051h-2.445c0,2.916,2.377,5.289,5.297,5.289v-2.441
		C49.354,17.898,48.074,16.621,48.074,15.051z"/>
	
</g>
<g>
	<path style="fill:#FFFFFF;" d="M38.297,15.051h-2.445c0,8.299,6.762,15.051,15.074,15.051V27.66
		C43.962,27.66,38.297,22.004,38.297,15.051z"/>
	
</g>
<g>
	<path style="fill:#FFFFFF;" d="M58.666,15.051h2.445c0-5.607-4.569-10.17-10.186-10.17v2.441
		C55.194,7.322,58.666,10.789,58.666,15.051z"/>
	
</g>
<g>
	<path style="fill:#FFFFFF;" d="M63.556,15.051H66C66,6.752,59.238,0,50.926,0v2.44C57.891,2.44,63.556,8.098,63.556,15.051z"/>
	
</g>
<g>
	<path style="fill:#FFFFFF;" d="M56.223,15.051h-2.445c0,1.57-1.279,2.848-2.852,2.848v2.441
		C53.846,20.34,56.223,17.967,56.223,15.051z"/>
	
</g>
<g>
	<path style="fill:#FFFFFF;" d="M66,15.051h-2.444c0,6.953-5.665,12.609-12.63,12.609v2.441C59.238,30.102,66,23.35,66,15.051z"/>
	
</g>


<g>
	<path style="fill:#FFFFFF;" d="M12.222,32.949H9.778c0,2.916,2.376,5.288,5.296,5.288v-2.44
		C13.502,35.797,12.222,34.52,12.222,32.949z"/>
	
</g>
<g>
	<path style="fill:#FFFFFF;" d="M7.333,32.949H4.889c0,5.607,4.569,10.169,10.186,10.169v-2.44
		C10.806,40.678,7.333,37.211,7.333,32.949z"/>
	
</g>
<g>
	<path style="fill:#FFFFFF;" d="M20.371,32.949h-2.445c0,1.57-1.279,2.848-2.852,2.848v2.44
		C17.994,38.237,20.371,35.865,20.371,32.949z"/>
	
	
	
</g>


<g>
	<path style="fill:#FFFFFF;" d="M33,30.102V27.66c-2.92,0-5.296,2.373-5.296,5.289h2.444C30.148,31.379,31.428,30.102,33,30.102z"/>
	
</g>
<g>
	<path style="fill:#FFFFFF;" d="M30.148,32.949h-2.444c0,2.916,2.376,5.288,5.296,5.288v-2.44
		C31.428,35.797,30.148,34.52,30.148,32.949z"/>
	
</g>
<g>
	<path style="fill:#FFFFFF;" d="M20.371,32.949h-2.445C17.926,41.248,24.688,48,33,48v-2.441
		C26.036,45.559,20.371,39.902,20.371,32.949z"/>
	
</g>
<g>
	<path style="fill:#FFFFFF;" d="M35.852,32.949h2.445c0-2.916-2.377-5.289-5.297-5.289v2.441
		C34.572,30.102,35.852,31.379,35.852,32.949z"/>
	
</g>
<g>
	<path style="fill:#FFFFFF;" d="M38.297,32.949h-2.445c0,1.57-1.279,2.848-2.852,2.848v2.44
		C35.92,38.237,38.297,35.865,38.297,32.949z"/>
	
</g>
<g>
	<path style="fill:#FFFFFF;" d="M48.074,32.949h-2.445c0,6.953-5.664,12.609-12.629,12.609V48
		C41.312,48,48.074,41.248,48.074,32.949z"/>
	
</g>




<g>
	<path style="fill:#FFFFFF;" d="M48.074,32.949h-2.445c0,2.916,2.377,5.288,5.297,5.288v-2.44
		C49.354,35.797,48.074,34.52,48.074,32.949z"/>
	
</g>
<g>
	<path style="fill:#FFFFFF;" d="M56.223,32.949h-2.445c0,1.57-1.279,2.848-2.852,2.848v2.44
		C53.846,38.237,56.223,35.865,56.223,32.949z"/>
	
</g>
<g>
	<path style="fill:#FFFFFF;" d="M50.926,40.678v2.44c5.616,0,10.186-4.562,10.186-10.169h-2.445
		C58.666,37.211,55.194,40.678,50.926,40.678z"/>
	
</g>
</svg>
