<?xml version="1.0" encoding="iso-8859-1"?>
<!-- Generator: Adobe Illustrator 13.0.0, SVG Export Plug-In . SVG Version: 6.00 Build 14948)  -->
<!DOCTYPE svg PUBLIC "-//W3C//DTD SVG 1.1//EN" "http://www.w3.org/Graphics/SVG/1.1/DTD/svg11.dtd">
<svg version="1.1" id="Calque_1" xmlns="http://www.w3.org/2000/svg" xmlns:xlink="http://www.w3.org/1999/xlink" x="0px" y="0px"
	 width="100px" height="87px" viewBox="0 0 100 87" style="enable-background:new 0 0 100 87;" xml:space="preserve">
<g>
	<path style="fill:#FFFFFF;" d="M50,13c-13.785,0-25,11.215-25,25h6c0-10.477,8.523-19,19-19s19,8.523,19,19h6
		C75,24.215,63.785,13,50,13z"/>
	<path style="fill:#FFFFFF;" d="M50,45c-3.859,0-7-3.141-7-7h-6c0,7.168,5.832,13,13,13s13-5.832,13-13h-6
		C57,41.859,53.859,45,50,45z"/>
	<path style="fill:#FFFFFF;" d="M99.5,83.258l-21.319-21.32C83.675,55.479,87,47.123,87,38C87,17.598,70.402,1,50,1S13,17.598,13,38
		s16.598,37,37,37c9.123,0,17.479-3.325,23.938-8.819L95.258,87.5L99.5,83.258z M19,38C19,20.906,32.906,7,50,7s31,13.906,31,31
		S67.094,69,50,69S19,55.094,19,38z"/>
</g>
</svg>
