<?xml version="1.0" encoding="iso-8859-1"?>
<!-- Generator: Adobe Illustrator 13.0.0, SVG Export Plug-In . SVG Version: 6.00 Build 14948)  -->
<!DOCTYPE svg PUBLIC "-//W3C//DTD SVG 1.1//EN" "http://www.w3.org/Graphics/SVG/1.1/DTD/svg11.dtd">
<svg version="1.1" id="Calque_1" xmlns="http://www.w3.org/2000/svg" xmlns:xlink="http://www.w3.org/1999/xlink" x="0px" y="0px"
	 width="66px" height="48px" viewBox="0 0 66 48" style="enable-background:new 0 0 66 48;" xml:space="preserve">
<g style="opacity:0.2;">
	<path style="fill:#FFFFFF;" d="M50.926,30.148c1.572,0,2.852,1.279,2.852,2.852h2.445c0-2.92-2.377-5.296-5.297-5.296
		S45.63,30.08,45.63,33h2.444C48.074,31.428,49.354,30.148,50.926,30.148z"/>
	<path style="fill:#FFFFFF;" d="M15.074,48.074c6.91,0,12.744-4.675,14.518-11.026c0.922,0.777,2.11,1.249,3.408,1.249
		s2.486-0.472,3.408-1.249c1.773,6.352,7.607,11.026,14.518,11.026C59.238,48.074,66,41.312,66,33
		c0-8.312-6.762-15.074-15.074-15.074c-5.138,0-9.682,2.586-12.404,6.522c-1.592-1.031-3.487-1.634-5.521-1.634
		s-3.93,0.603-5.521,1.634c-2.723-3.937-7.267-6.522-12.404-6.522C6.762,17.926,0,24.688,0,33C0,41.312,6.762,48.074,15.074,48.074z
		 M33,35.852c-1.572,0-2.852-1.279-2.852-2.852s1.279-2.852,2.852-2.852s2.852,1.279,2.852,2.852S34.572,35.852,33,35.852z
		 M50.926,20.37c6.965,0,12.63,5.666,12.63,12.63s-5.665,12.63-12.63,12.63c-6.964,0-12.629-5.666-12.629-12.63
		c0-1.637,0.316-3.201,0.886-4.638c0.974,1.294,1.558,2.896,1.558,4.638c0,5.616,4.569,10.186,10.186,10.186
		S61.111,38.616,61.111,33h-2.444c0,4.269-3.473,7.741-7.741,7.741c-4.268,0-7.74-3.473-7.74-7.741c0-2.699-1.059-5.155-2.778-6.979
		C42.672,22.617,46.541,20.37,50.926,20.37z M33,25.26c1.589,0,3.066,0.482,4.297,1.307c-0.361,0.763-0.658,1.561-0.889,2.386
		c-0.922-0.777-2.11-1.248-3.408-1.248s-2.486,0.471-3.408,1.248c-0.23-0.825-0.527-1.623-0.889-2.386
		C29.934,25.742,31.411,25.26,33,25.26z M15.074,20.37c4.385,0,8.254,2.247,10.519,5.65c-1.72,1.824-2.778,4.28-2.778,6.979
		c0,4.269-3.473,7.741-7.74,7.741c-4.269,0-7.741-3.473-7.741-7.741H4.889c0,5.616,4.569,10.186,10.186,10.186
		S25.26,38.616,25.26,33c0-1.741,0.584-3.344,1.558-4.638c0.569,1.437,0.887,3.001,0.887,4.638c0,6.964-5.666,12.63-12.63,12.63
		S2.444,39.964,2.444,33S8.11,20.37,15.074,20.37z"/>
	<path style="fill:#FFFFFF;" d="M15.074,30.148c1.572,0,2.852,1.279,2.852,2.852h2.444c0-2.92-2.376-5.296-5.296-5.296
		S9.777,30.08,9.777,33h2.445C12.223,31.428,13.502,30.148,15.074,30.148z"/>
	<path style="fill:#FFFFFF;" d="M58.667,15.074h2.444c0-5.616-4.569-10.186-10.186-10.186v2.445
		C55.194,7.334,58.667,10.806,58.667,15.074z"/>
	<path style="fill:#FFFFFF;" d="M27.704,15.074c0,2.92,2.376,5.296,5.296,5.296s5.297-2.376,5.297-5.296S35.92,9.778,33,9.778
		S27.704,12.154,27.704,15.074z M35.852,15.074c0,1.572-1.279,2.852-2.852,2.852s-2.852-1.279-2.852-2.852s1.279-2.852,2.852-2.852
		S35.852,13.502,35.852,15.074z"/>
	<path style="fill:#FFFFFF;" d="M15.074,9.778c-2.92,0-5.297,2.376-5.297,5.296h2.445c0-1.572,1.279-2.852,2.852-2.852
		s2.852,1.279,2.852,2.852h2.444c0-6.964,5.666-12.63,12.63-12.63s12.63,5.666,12.63,12.63h2.444c0-1.572,1.279-2.852,2.852-2.852
		s2.852,1.279,2.852,2.852h2.445c0-2.92-2.377-5.296-5.297-5.296c-1.298,0-2.486,0.471-3.408,1.248C45.744,4.675,39.91,0,33,0
		S20.256,4.675,18.482,11.026C17.561,10.249,16.372,9.778,15.074,9.778z"/>
	<path style="fill:#FFFFFF;" d="M15.074,7.334V4.889c-5.616,0-10.186,4.569-10.186,10.186h2.444
		C7.333,10.806,10.806,7.334,15.074,7.334z"/>
</g>
<g>
	<path style="fill:#FFFFFF;" d="M15.074,17.926c-1.572,0-2.852-1.279-2.852-2.852H9.777c0,2.92,2.377,5.296,5.297,5.296
		s5.296-2.376,5.296-5.296h-2.444C17.926,16.646,16.646,17.926,15.074,17.926z"/>
	<path style="fill:#FFFFFF;" d="M50.926,0c-6.91,0-12.744,4.675-14.518,11.026c-0.922-0.777-2.11-1.249-3.408-1.249
		s-2.486,0.472-3.408,1.249C27.818,4.675,21.984,0,15.074,0C6.762,0,0,6.762,0,15.074c0,8.312,6.762,15.074,15.074,15.074
		c5.138,0,9.682-2.586,12.404-6.522C29.07,24.657,30.966,25.26,33,25.26s3.93-0.603,5.521-1.634
		c2.723,3.937,7.267,6.522,12.404,6.522C59.238,30.148,66,23.386,66,15.074C66,6.762,59.238,0,50.926,0z M33,12.223
		c1.572,0,2.852,1.279,2.852,2.852S34.572,17.926,33,17.926s-2.852-1.279-2.852-2.852S31.428,12.223,33,12.223z M15.074,27.704
		c-6.965,0-12.63-5.666-12.63-12.63s5.665-12.63,12.63-12.63c6.964,0,12.629,5.666,12.629,12.63c0,1.637-0.316,3.201-0.886,4.638
		c-0.974-1.294-1.558-2.896-1.558-4.638c0-5.616-4.569-10.186-10.186-10.186S4.889,9.458,4.889,15.074h2.444
		c0-4.269,3.473-7.741,7.741-7.741c4.268,0,7.74,3.473,7.74,7.741c0,2.699,1.059,5.155,2.778,6.979
		C23.328,25.457,19.459,27.704,15.074,27.704z M33,22.814c-1.589,0-3.066-0.482-4.297-1.307c0.361-0.763,0.658-1.561,0.889-2.386
		c0.922,0.777,2.11,1.248,3.408,1.248s2.486-0.471,3.408-1.248c0.23,0.825,0.527,1.623,0.889,2.386
		C36.066,22.332,34.589,22.814,33,22.814z M50.926,27.704c-4.385,0-8.254-2.247-10.519-5.65c1.72-1.824,2.778-4.28,2.778-6.979
		c0-4.269,3.473-7.741,7.74-7.741c4.269,0,7.741,3.473,7.741,7.741h2.444c0-5.616-4.569-10.186-10.186-10.186
		S40.74,9.458,40.74,15.074c0,1.741-0.584,3.344-1.558,4.638c-0.569-1.437-0.887-3.001-0.887-4.638c0-6.964,5.666-12.63,12.63-12.63
		s12.63,5.666,12.63,12.63S57.89,27.704,50.926,27.704z"/>
	<path style="fill:#FFFFFF;" d="M50.926,17.926c-1.572,0-2.852-1.279-2.852-2.852H45.63c0,2.92,2.376,5.296,5.296,5.296
		s5.297-2.376,5.297-5.296h-2.445C53.777,16.646,52.498,17.926,50.926,17.926z"/>
	<path style="fill:#FFFFFF;" d="M7.333,33H4.889c0,5.616,4.569,10.186,10.186,10.186V40.74C10.806,40.74,7.333,37.269,7.333,33z"/>
	<path style="fill:#FFFFFF;" d="M38.296,33c0-2.92-2.376-5.296-5.296-5.296S27.703,30.08,27.703,33S30.08,38.296,33,38.296
		S38.296,35.92,38.296,33z M30.148,33c0-1.572,1.279-2.852,2.852-2.852s2.852,1.279,2.852,2.852S34.572,35.852,33,35.852
		S30.148,34.572,30.148,33z"/>
	<path style="fill:#FFFFFF;" d="M50.926,38.296c2.92,0,5.297-2.376,5.297-5.296h-2.445c0,1.572-1.279,2.852-2.852,2.852
		S48.074,34.572,48.074,33H45.63c0,6.964-5.666,12.63-12.63,12.63S20.37,39.964,20.37,33h-2.444c0,1.572-1.279,2.852-2.852,2.852
		S12.223,34.572,12.223,33H9.777c0,2.92,2.377,5.296,5.297,5.296c1.298,0,2.486-0.471,3.408-1.248
		C20.256,43.399,26.09,48.074,33,48.074s12.744-4.675,14.518-11.026C48.439,37.825,49.628,38.296,50.926,38.296z"/>
	<path style="fill:#FFFFFF;" d="M50.926,40.74v2.445c5.616,0,10.186-4.569,10.186-10.186h-2.444
		C58.667,37.269,55.194,40.74,50.926,40.74z"/>
</g>
</svg>
