<?xml version="1.0" encoding="iso-8859-1"?>
<!-- Generator: Adobe Illustrator 13.0.0, SVG Export Plug-In . SVG Version: 6.00 Build 14948)  -->
<!DOCTYPE svg PUBLIC "-//W3C//DTD SVG 1.1//EN" "http://www.w3.org/Graphics/SVG/1.1/DTD/svg11.dtd">
<svg version="1.1" id="Calque_1" xmlns="http://www.w3.org/2000/svg" xmlns:xlink="http://www.w3.org/1999/xlink" x="0px" y="0px"
	 width="162px" height="118px" viewBox="0 0 162 118" style="enable-background:new 0 0 162 118;" xml:space="preserve">
<g>
	<path style="fill:none;" d="M81,50c-3.185,0-6.103-1.156-8.366-3.064c-0.566,2.026-1.295,3.985-2.182,5.856
		C73.472,54.815,77.1,56,81,56s7.527-1.185,10.548-3.208c-0.887-1.871-1.616-3.83-2.183-5.855C87.102,48.845,84.185,50,81,50z"/>
	<path style="fill:none;" d="M81,44c3.859,0,7-3.141,7-7s-3.141-7-7-7s-7,3.141-7,7S77.141,44,81,44z"/>
	<path style="fill:none;" d="M88,81c0-3.859-3.141-7-7-7s-7,3.141-7,7s3.141,7,7,7S88,84.859,88,81z"/>
	<path style="fill:none;" d="M132,37c0-3.859-3.141-7-7-7s-7,3.141-7,7s3.141,7,7,7S132,40.859,132,37z"/>
	<path style="fill:none;" d="M56,37c0-10.477-8.523-19-19-19s-19,8.523-19,19h-6c0-13.785,11.215-25,25-25s25,11.215,25,25
		c0,4.273,1.435,8.208,3.825,11.385C67.223,44.857,68,41.019,68,37C68,19.906,54.094,6,37,6S6,19.906,6,37s13.906,31,31,31
		c10.763,0,20.259-5.516,25.819-13.867C58.596,49.654,56,43.626,56,37z M37,50c-7.168,0-13-5.832-13-13h6c0,3.859,3.141,7,7,7
		s7-3.141,7-7h6C50,44.168,44.168,50,37,50z"/>
	<path style="fill:none;" d="M125,6c-17.094,0-31,13.906-31,31c0,4.019,0.777,7.857,2.175,11.385
		c0.805,2.029,1.812,3.955,3.006,5.748C104.741,62.484,114.236,68,125,68c17.094,0,31-13.906,31-31S142.094,6,125,6z
		 M124.999,62.001c-13.785,0-25-11.215-25-25h6c0,10.477,8.523,19,19,19V62.001z M112,37c0-7.168,5.832-13,13-13s13,5.832,13,13
		s-5.832,13-13,13S112,44.168,112,37z M125,62v-6c10.477,0,19-8.523,19-19s-8.523-19-19-19s-19,8.523-19,19h-6
		c0-13.785,11.215-25,25-25s25,11.215,25,25S138.785,62,125,62z"/>
	<path style="fill:#373737;" d="M37,44c-3.859,0-7-3.141-7-7h-6c0,7.168,5.832,13,13,13s13-5.832,13-13h-6
		C44,40.859,40.859,44,37,44z"/>
	<path style="fill:#373737;" d="M125,12c-13.785,0-25,11.215-25,25s11.214,25.001,24.999,25.001v-6
		C114.522,56.001,106,47.477,106,37s8.523-19,19-19s19,8.523,19,19s-8.523,19-19,19v6c13.785,0,25-11.215,25-25S138.785,12,125,12z"
		/>
	<path style="fill:#373737;" d="M125,0c-16.96,0-31.281,11.474-35.634,27.064C87.103,25.156,84.186,24,81,24
		c-3.185,0-6.103,1.156-8.366,3.064C68.281,11.474,53.96,0,37,0C16.598,0,0,16.598,0,37s16.598,37,37,37
		c12.612,0,23.764-6.347,30.446-16.009C71.354,60.522,76.007,62,81,62s9.646-1.478,13.554-4.009C101.236,67.653,112.388,74,125,74
		c20.402,0,37-16.598,37-37S145.402,0,125,0z M81,30c3.859,0,7,3.141,7,7s-3.141,7-7,7s-7-3.141-7-7S77.141,30,81,30z M37,68
		C19.906,68,6,54.094,6,37S19.906,6,37,6s31,13.906,31,31c0,4.019-0.777,7.857-2.175,11.385C63.435,45.208,62,41.273,62,37
		c0-13.785-11.215-25-25-25S12,23.215,12,37h6c0-10.477,8.523-19,19-19s19,8.523,19,19c0,6.626,2.596,12.654,6.819,17.133
		C57.259,62.484,47.763,68,37,68z M81,56c-3.9,0-7.528-1.185-10.548-3.208c0.887-1.871,1.616-3.83,2.182-5.856
		C74.897,48.844,77.815,50,81,50c3.185,0,6.102-1.155,8.365-3.063c0.566,2.026,1.296,3.984,2.183,5.855C88.527,54.815,84.9,56,81,56
		z M125,68c-10.764,0-20.259-5.516-25.819-13.867c-1.193-1.793-2.201-3.719-3.006-5.748C94.777,44.857,94,41.019,94,37
		c0-17.094,13.906-31,31-31s31,13.906,31,31S142.094,68,125,68z"/>
	<path style="fill:#373737;" d="M138,37c0-7.168-5.832-13-13-13s-13,5.832-13,13s5.832,13,13,13S138,44.168,138,37z M118,37
		c0-3.859,3.141-7,7-7s7,3.141,7,7s-3.141,7-7,7S118,40.859,118,37z"/>
	<path style="fill:#373737;" d="M18,81h-6c0,13.785,11.215,25,25,25v-6C26.523,100,18,91.477,18,81z"/>
	<path style="fill:#373737;" d="M94,81c0-7.168-5.832-13-13-13s-13,5.832-13,13s5.832,13,13,13S94,88.168,94,81z M74,81
		c0-3.859,3.141-7,7-7s7,3.141,7,7s-3.141,7-7,7S74,84.859,74,81z"/>
	<path style="fill:#373737;" d="M125,94c7.168,0,13-5.832,13-13h-6c0,3.859-3.141,7-7,7s-7-3.141-7-7h-6c0,17.094-13.906,31-31,31
		S50,98.094,50,81h-6c0,3.859-3.141,7-7,7s-7-3.141-7-7h-6c0,7.168,5.832,13,13,13c3.185,0,6.103-1.156,8.366-3.064
		C49.719,106.526,64.04,118,81,118c16.96,0,31.281-11.474,35.634-27.064C118.897,92.844,121.814,94,125,94z"/>
	<path style="fill:#373737;" d="M125,100v6c13.785,0,25-11.215,25-25h-6C144,91.477,135.477,100,125,100z"/>
</g>
</svg>
