<?xml version="1.0" encoding="iso-8859-1"?>
<!-- Generator: Adobe Illustrator 13.0.0, SVG Export Plug-In . SVG Version: 6.00 Build 14948)  -->
<!DOCTYPE svg PUBLIC "-//W3C//DTD SVG 1.1//EN" "http://www.w3.org/Graphics/SVG/1.1/DTD/svg11.dtd">
<svg version="1.1" xmlns="http://www.w3.org/2000/svg" xmlns:xlink="http://www.w3.org/1999/xlink" x="0px" y="0px" width="210px"
	 height="165px" viewBox="0 0 210 165" style="enable-background:new 0 0 210 165;" xml:space="preserve">
<g id="Calque_1">
</g>
<g id="Calque_2">
	<g>
		<path style="fill:#FFFFFF;" d="M33.375,31h2.29h0.468c0.008-0.008,0.017-0.014,0.025-0.021h-2.783V31z"/>
		<g>
			<path style="fill:#FFFFFF;" d="M61,45.375c-7.168,0-13,5.832-13,13h6c0-3.859,3.141-7,7-7s7,3.141,7,7h6
				C74,51.207,68.168,45.375,61,45.375z"/>
			<!--animateTransform
				attributeName="transform"
				begin="0s"
				dur="4s"
				type="rotate"
				from="0 61 58"
				to="360 61 58"
				repeatCount="indefinite" 
			    /-->
		</g>
		<g>
			<path style="fill:#FFFFFF;" d="M156,58.375h6c0-7.168-5.832-13-13-13s-13,5.832-13,13h6c0-3.859,3.141-7,7-7
				S156,54.516,156,58.375z"/>
			<!--animateTransform
				attributeName="transform"
				begin="0s"
				dur="2s"
				type="rotate"
				from="0 149 58"
				to="360 149 58"
				repeatCount="indefinite" 
			    /-->
		</g>
		<g>
			<path style="fill:#FFFFFF;" d="M36.373,31v0.708l0.002,2.271l0,0l-0.002-3h-0.215c-0.009,0.008-0.018,0.014-0.025,0.021H36.373z"
				/>
		</g>
		<g>
			<path style="fill:#FFFFFF;" d="M186,58.375c0-20.402-16.598-37-37-37c-16.961,0-31.281,11.474-35.635,27.064
				c-2.263-1.908-5.18-3.064-8.365-3.064s-6.103,1.156-8.365,3.064C92.281,32.849,77.961,21.375,61,21.375
				c-7.59,0-14.651,2.3-20.529,6.235l-3.096,3.096V34.5v0.498h-4.291l-2.851,2.851C26.299,43.727,24,50.786,24,58.375
				c0,20.402,16.598,37,37,37c3.859,0,7,3.141,7,7c0,20.402,16.598,37,37,37s37-16.598,37-37c0-3.859,3.141-7,7-7
				C169.402,95.375,186,78.777,186,58.375z M105,51.375c3.859,0,7,3.141,7,7s-3.141,7-7,7s-7-3.141-7-7S101.141,51.375,105,51.375z
				 M61,89.375c-17.094,0-31-13.906-31-31s13.906-31,31-31s31,13.906,31,31c0,3.186,1.156,6.103,3.064,8.366
				C82.638,70.21,72.835,80.013,69.365,92.439C67.103,90.531,64.186,89.375,61,89.375z M105,133.375c-17.094,0-31-13.906-31-31
				s13.906-31,31-31s31,13.906,31,31S122.094,133.375,105,133.375z M140.635,92.439c-3.47-12.427-13.272-22.229-25.699-25.698
				c1.908-2.264,3.064-5.181,3.064-8.366c0-17.094,13.906-31,31-31s31,13.906,31,31s-13.906,31-31,31
				C145.814,89.375,142.897,90.531,140.635,92.439z"/>
		</g>
		<g>
			<path style="fill:#FFFFFF;" d="M42,102.375h-6c0,13.785,11.215,25,25,25v-6C50.523,121.375,42,112.852,42,102.375z"/>
			<!--animateTransform
				attributeName="transform"
				begin="0s"
				dur="3s"
				type="rotate"
				from="0 61 102"
				to="-360 61 102"
				repeatCount="indefinite" 
			    /-->
		</g>
		<g>
			<path style="fill:#FFFFFF;" d="M30,102.375h-6c0,20.402,16.598,37,37,37v-6C43.906,133.375,30,119.469,30,102.375z"/>
		</g>
		<g>
			<path style="fill:#FFFFFF;" d="M105,89.375c-7.168,0-13,5.832-13,13h6c0-3.859,3.141-7,7-7s7,3.141,7,7h6
				C118,95.207,112.168,89.375,105,89.375z"/>
		</g>
		<g>
			<path style="fill:#FFFFFF;" d="M149,121.375v6c13.785,0,25-11.215,25-25h-6C168,112.852,159.477,121.375,149,121.375z"/>
		</g>
		<g>
			<path style="fill:#FFFFFF;" d="M149,133.375v6c20.402,0,37-16.598,37-37h-6C180,119.469,166.094,133.375,149,133.375z"/>
		</g>
		<polygon style="fill:#FFFFFF;" points="63.375,3.577 63.375,3.999 63.798,3.999 		"/>
		<polygon style="fill:#FFFFFF;" points="66.375,3.999 66.373,0.999 63.375,0.999 63.375,3.577 63.798,3.999 		"/>
		<polygon style="fill:#FFFFFF;" points="6.875,60.501 6.875,60.5 6.874,60.5 		"/>
		<rect x="3.376" y="60.998" style="fill:#FFFFFF;" width="2.999" height="3"/>
		<path style="fill:#FFFFFF;" d="M33.374,33.291V31h0.001v-0.021h2.783c1.35-1.226,2.792-2.351,4.312-3.368L63.082,4.998h4.293
			V4.499V0h-5.001v4.291L36.665,30h-4.291v4.291L6.667,59.998H2.376v5h5v-0.5v-3.791l22.857-22.858
			c0.953-1.424,2.005-2.775,3.141-4.051V33.291z M63.375,3.577V0.999h2.998l0.002,3h-2.577h-0.423V3.577z M3.376,63.998v-3h2.997
			l0.002,3H3.376z M6.875,60.501L6.875,60.501L6.875,60.501L6.875,60.501z"/>
		<path style="fill:#FFFFFF;" d="M37.375,34.998V34.5v-3.794l3.096-3.096c-1.521,1.018-2.963,2.143-4.312,3.368h0.215l0.002,3l0,0
			v0.021h-2.293h-0.708v-0.201c-1.136,1.275-2.188,2.627-3.141,4.051l2.851-2.851H37.375z"/>
		<polygon style="fill:#FFFFFF;" points="33.375,33.557 33.375,31 33.374,31 33.374,33.291 33.374,33.798 33.375,33.796 		"/>
		<polygon style="fill:#FFFFFF;" points="33.375,33.979 33.375,33.796 33.374,33.798 33.374,33.999 34.082,33.999 36.375,33.999 
			36.375,33.979 33.798,33.979 		"/>
	</g>
</g>
</svg>
