<?xml version="1.0" encoding="iso-8859-1"?>
<!-- Generator: Adobe Illustrator 13.0.0, SVG Export Plug-In . SVG Version: 6.00 Build 14948)  -->
<!DOCTYPE svg PUBLIC "-//W3C//DTD SVG 1.1//EN" "http://www.w3.org/Graphics/SVG/1.1/DTD/svg11.dtd">
<svg version="1.1" xmlns="http://www.w3.org/2000/svg" xmlns:xlink="http://www.w3.org/1999/xlink" x="0px" y="0px" width="210px"
	 height="165px" viewBox="0 0 210 165" style="enable-background:new 0 0 210 165;" xml:space="preserve">
<g id="Calque_1" style="display:none;">
	<g style="display:inline;">
		<path style="fill:#565656;" d="M33.375,31h2.29h0.468c0.008-0.008,0.017-0.014,0.025-0.021h-2.783V31z"/>
		<g>
			<path style="fill:#565656;" d="M61,45.375c-7.168,0-13,5.832-13,13h6c0-3.859,3.141-7,7-7s7,3.141,7,7h6
				C74,51.207,68.168,45.375,61,45.375z"/>
		</g>
		<g>
			<path style="fill:#565656;" d="M156,58.375h6c0-7.168-5.832-13-13-13s-13,5.832-13,13h6c0-3.859,3.141-7,7-7
				S156,54.516,156,58.375z"/>
		</g>
		<g>
			<path style="fill:#565656;" d="M36.373,31v0.708l0.002,2.271l0,0l-0.002-3h-0.215c-0.009,0.008-0.018,0.014-0.025,0.021H36.373z"
				/>
		</g>
		<g>
			<path style="fill:#565656;" d="M186,58.375c0-20.402-16.598-37-37-37c-16.961,0-31.281,11.474-35.635,27.064
				c-2.263-1.908-5.18-3.064-8.365-3.064s-6.103,1.156-8.365,3.064C92.281,32.849,77.961,21.375,61,21.375
				c-7.59,0-14.651,2.3-20.529,6.235l-3.096,3.096V34.5v0.498h-4.291l-2.851,2.851C26.299,43.727,24,50.786,24,58.375
				c0,20.402,16.598,37,37,37c3.859,0,7,3.141,7,7c0,20.402,16.598,37,37,37s37-16.598,37-37c0-3.859,3.141-7,7-7
				C169.402,95.375,186,78.777,186,58.375z M105,51.375c3.859,0,7,3.141,7,7s-3.141,7-7,7s-7-3.141-7-7S101.141,51.375,105,51.375z
				 M61,89.375c-17.094,0-31-13.906-31-31s13.906-31,31-31s31,13.906,31,31c0,3.186,1.156,6.103,3.064,8.366
				C82.638,70.21,72.835,80.013,69.365,92.439C67.103,90.531,64.186,89.375,61,89.375z M105,133.375c-17.094,0-31-13.906-31-31
				s13.906-31,31-31s31,13.906,31,31S122.094,133.375,105,133.375z M140.635,92.439c-3.47-12.427-13.272-22.229-25.699-25.698
				c1.908-2.264,3.064-5.181,3.064-8.366c0-17.094,13.906-31,31-31s31,13.906,31,31s-13.906,31-31,31
				C145.814,89.375,142.897,90.531,140.635,92.439z"/>
		</g>
		<g>
			<path style="fill:#565656;" d="M42,102.375h-6c0,13.785,11.215,25,25,25v-6C50.523,121.375,42,112.852,42,102.375z"/>
		</g>
		<g>
			<path style="fill:#565656;" d="M30,102.375h-6c0,20.402,16.598,37,37,37v-6C43.906,133.375,30,119.469,30,102.375z"/>
		</g>
		<g>
			<path style="fill:#565656;" d="M105,89.375c-7.168,0-13,5.832-13,13h6c0-3.859,3.141-7,7-7s7,3.141,7,7h6
				C118,95.207,112.168,89.375,105,89.375z"/>
		</g>
		<g>
			<path style="fill:#565656;" d="M149,121.375v6c13.785,0,25-11.215,25-25h-6C168,112.852,159.477,121.375,149,121.375z"/>
		</g>
		<g>
			<path style="fill:#565656;" d="M149,133.375v6c20.402,0,37-16.598,37-37h-6C180,119.469,166.094,133.375,149,133.375z"/>
		</g>
		<polygon style="fill:#565656;" points="63.375,3.577 63.375,3.999 63.798,3.999 		"/>
		<polygon style="fill:#565656;" points="66.375,3.999 66.373,0.999 63.375,0.999 63.375,3.577 63.798,3.999 		"/>
		<polygon style="fill:#565656;" points="6.875,60.501 6.875,60.5 6.874,60.5 		"/>
		<rect x="3.376" y="60.998" style="fill:#565656;" width="2.999" height="3"/>
		<path style="fill:#565656;" d="M33.374,33.291V31h0.001v-0.021h2.783c1.35-1.226,2.792-2.351,4.312-3.368L63.082,4.998h4.293
			V4.499V0h-5.001v4.291L36.665,30h-4.291v4.291L6.667,59.998H2.376v5h5v-0.5v-3.791l22.857-22.858
			c0.953-1.424,2.005-2.775,3.141-4.051V33.291z M63.375,3.577V0.999h2.998l0.002,3h-2.577h-0.423V3.577z M3.376,63.998v-3h2.997
			l0.002,3H3.376z M6.875,60.501L6.875,60.501L6.875,60.501L6.875,60.501z"/>
		<path style="fill:#565656;" d="M37.375,34.998V34.5v-3.794l3.096-3.096c-1.521,1.018-2.963,2.143-4.312,3.368h0.215l0.002,3l0,0
			v0.021h-2.293h-0.708v-0.201c-1.136,1.275-2.188,2.627-3.141,4.051l2.851-2.851H37.375z"/>
		<polygon style="fill:#565656;" points="33.375,33.557 33.375,31 33.374,31 33.374,33.291 33.374,33.798 33.375,33.796 		"/>
		<polygon style="fill:#565656;" points="33.375,33.979 33.375,33.796 33.374,33.798 33.374,33.999 34.082,33.999 36.375,33.999 
			36.375,33.979 33.798,33.979 		"/>
	</g>
</g>
<g id="Calque_3">
	<g>
		<path style="fill:#FFFFFF;" d="M61.046,33.5c-13.785,0-25,11.215-25,25h6c0-10.477,8.523-19,19-19V33.5z"/>
		<path style="fill:#FFFFFF;" d="M61.046,45.5c-7.168,0-13,5.832-13,13h6c0-3.859,3.141-7,7-7s7,3.141,7,7h6
			C74.046,51.332,68.214,45.5,61.046,45.5z"/>
		<path style="fill:#FFFFFF;" d="M149.046,45.5c-7.168,0-13,5.832-13,13h6c0-3.859,3.141-7,7-7s7,3.141,7,7h6
			C162.046,51.332,156.214,45.5,149.046,45.5z"/>
		<path style="fill:#FFFFFF;" d="M149.046,33.5v6c10.477,0,19,8.523,19,19h6C174.046,44.715,162.831,33.5,149.046,33.5z"/>
		<path style="fill:#FFFFFF;" d="M149.046,21.5c-20.402,0-37,16.598-37,37c0,3.859-3.141,7-7,7s-7-3.141-7-7
			c0-20.402-16.598-37-37-37s-37,16.598-37,37s16.598,37,37,37c9.956,0,19-3.96,25.657-10.379c3.37,4.961,5.343,10.943,5.343,17.379
			c0,7.168,5.832,13,13,13s13-5.832,13-13h-6c0,3.859-3.141,7-7,7s-7-3.141-7-7c0-8.234-2.706-15.847-7.271-22
			c2.656-3.581,4.676-7.659,5.905-12.064c2.264,1.908,5.181,3.064,8.366,3.064s6.103-1.156,8.366-3.064
			c4.353,15.591,18.673,27.064,35.634,27.064c20.402,0,37-16.598,37-37S169.448,21.5,149.046,21.5z M86.703,75.879
			C80.046,69.46,71.002,65.5,61.046,65.5v6c8.5,0,16.21,3.44,21.816,9c-5.606,5.56-13.316,9-21.816,9c-17.094,0-31-13.906-31-31
			s13.906-31,31-31s31,13.906,31,31C92.046,64.936,90.073,70.918,86.703,75.879z M149.046,89.5c-17.094,0-31-13.906-31-31
			s13.906-31,31-31s31,13.906,31,31S166.14,89.5,149.046,89.5z"/>
		<path style="fill:#FFFFFF;" d="M42.046,102.5h-6c0,13.785,11.215,25,25,25v-6C50.569,121.5,42.046,112.977,42.046,102.5z"/>
		<path style="fill:#FFFFFF;" d="M149.046,115.5v-6c-3.859,0-7-3.141-7-7h-6c0,17.094-13.906,31-31,31s-31-13.906-31-31h-6
			c0,3.859-3.141,7-7,7v6c3.186,0,6.103-1.156,8.366-3.064c4.353,15.591,18.673,27.064,35.634,27.064s31.281-11.474,35.634-27.064
			C142.943,114.344,145.86,115.5,149.046,115.5z"/>
		<path style="fill:#FFFFFF;" d="M149.046,121.5v6c13.785,0,25-11.215,25-25h-6C168.046,112.977,159.522,121.5,149.046,121.5z"/>
		<path style="fill:#FFFFFF;" d="M16.838,38.939c1.458,0,2.646-1.188,2.646-2.646s-1.188-2.646-2.646-2.646
			c-5.994,0-8.424,3.78-8.424,7.344c0,4.051,0.864,7.345,0.864,10.908c0,2.809-1.296,3.349-3.511,3.349
			c-1.241,0-2.268,1.025-2.268,2.268s1.026,2.269,2.268,2.269c2.215,0,3.511,0.54,3.511,3.348c0,3.564-0.864,6.858-0.864,10.908
			c0,3.564,2.43,7.344,8.424,7.344c1.458,0,2.646-1.188,2.646-2.646s-1.188-2.646-2.646-2.646c-1.674,0-2.538-0.972-2.538-2.538
			c0-3.348,0.486-5.994,0.486-8.855c0-3.942-1.026-6.049-3.834-7.183c2.808-1.134,3.834-3.24,3.834-7.182
			c0-2.862-0.486-5.509-0.486-8.856C14.3,39.911,15.164,38.939,16.838,38.939z"/>
		<path style="fill:#FFFFFF;" d="M204.217,55.247c-2.215,0-3.511-0.54-3.511-3.348c0-3.564,0.864-6.858,0.864-10.908
			c0-3.564-2.43-7.344-8.424-7.344c-1.458,0-2.646,1.188-2.646,2.646s1.188,2.646,2.646,2.646c1.674,0,2.538,0.972,2.538,2.538
			c0,3.348-0.486,5.994-0.486,8.855c0,3.942,1.026,6.049,3.834,7.183c-2.808,1.134-3.834,3.24-3.834,7.182
			c0,2.862,0.486,5.509,0.486,8.856c0,1.566-0.864,2.538-2.538,2.538c-1.458,0-2.646,1.188-2.646,2.646s1.188,2.646,2.646,2.646
			c5.994,0,8.424-3.78,8.424-7.344c0-4.051-0.864-7.345-0.864-10.908c0-2.809,1.296-3.349,3.511-3.349
			c1.241,0,2.268-1.025,2.268-2.268S205.458,55.247,204.217,55.247z"/>
	</g>
</g>
<g id="Calque_2" style="display:none;">
</g>
</svg>
